<?xml version="1.0" encoding="UTF-8"?>
<svg id="Layer_1" data-name="Layer 1" xmlns="http://www.w3.org/2000/svg" viewBox="0 0 1023 1024">
  <defs>
    <style>
      .cls-1 {
        fill: #fff;
      }

      .cls-2 {
        fill: #4caf50;
      }

      .cls-2, .cls-3, .cls-4 {
        opacity: .5;
      }

      .cls-3 {
        fill: #2196f3;
      }

      .cls-4 {
        fill: #f44336;
      }
    </style>
  </defs>
  <path class="cls-1" d="M682,170c-15.01,0-29.79,.98-44.29,2.86C579.09,69.64,468.19,0,341,0,152.67,0,0,152.67,0,341,0,403.11,16.61,461.34,45.63,511.5,16.61,561.66,0,619.89,0,682,0,870.33,152.67,1023,341,1023c127.57,0,238.75-70.06,297.23-173.79,14.33,1.84,28.94,2.79,43.77,2.79,188.33,0,341-152.67,341-341s-152.67-341-341-341Z"/>
  <circle class="cls-2" cx="341" cy="683" r="341"/>
  <circle class="cls-4" cx="341" cy="342" r="341"/>
  <circle class="cls-3" cx="682" cy="512" r="341"/>
</svg>